<?xml version="1.0" standalone="no"?>
<!DOCTYPE svg PUBLIC "-//W3C//DTD SVG 20010904//EN"
 "http://www.w3.org/TR/2001/REC-SVG-20010904/DTD/svg10.dtd">
<svg version="1.0" xmlns="http://www.w3.org/2000/svg"
 width="612.000000pt" height="502.000000pt" viewBox="0 0 612.000000 502.000000"
 preserveAspectRatio="xMidYMid meet">

<g transform="translate(0.000000,502.000000) scale(0.100000,-0.100000)"
fill="#000000" stroke="none">
<path d="M3512 3395 c-12 -25 -19 -51 -16 -57 4 -6 3 -8 -3 -5 -6 4 -17 -8
-24 -26 -7 -17 -33 -67 -56 -110 -24 -43 -40 -83 -37 -89 4 -6 3 -8 -4 -5 -6
4 -28 -22 -53 -60 -62 -99 -199 -231 -281 -270 -110 -54 -183 -60 -390 -33
-191 24 -258 21 -350 -19 -40 -17 -41 -19 -18 -24 242 -50 361 -98 482 -195
168 -134 248 -301 248 -520 0 -255 -147 -529 -395 -735 -67 -56 -59 -56 83 4
147 62 260 138 376 252 241 237 372 534 447 1011 18 109 22 191 26 486 2 195
0 375 -4 399 l-8 43 -23 -47z m-11 -98 c-10 -9 -11 -8 -5 6 3 10 9 15 12 12 3
-3 0 -11 -7 -18z m-160 -270 c-10 -9 -11 -8 -5 6 3 10 9 15 12 12 3 -3 0 -11
-7 -18z"/>
<path d="M2814 3310 c-98 -39 -153 -120 -154 -224 -1 -228 275 -329 424 -154
159 185 -43 468 -270 378z"/>
</g>
</svg>
